<svg width="36" height="36" viewBox="0 0 36 36" fill="none" xmlns="http://www.w3.org/2000/svg">
<path d="M6.70221 26.2979C8.43437 29.5731 11.8931 30.75 18 30.75C26.4383 30.75 29.8206 28.503 30.5779 21.5779M6.70221 26.2979C5.66886 24.3438 5.25 21.6432 5.25 18C5.25 8.25 8.25 5.25 18 5.25C27.75 5.25 30.75 8.25 30.75 18C30.75 19.3117 30.6957 20.5014 30.5779 21.5779M6.70221 26.2979L11.3787 21.6213C12.5503 20.4498 14.4498 20.4498 15.6213 21.6213L15.8787 21.8787C17.0502 23.0502 18.9498 23.0502 20.1213 21.8787L23.3787 18.6213C24.5502 17.4498 26.4498 17.4498 27.6213 18.6213L30.5779 21.5779M16.0365 13.269C16.0365 14.7975 14.796 16.038 13.2675 16.038C11.7405 16.038 10.5 14.7975 10.5 13.269C10.5 11.7405 11.7405 10.5 13.2675 10.5C14.796 10.5 16.0365 11.7405 16.0365 13.269Z" stroke="#333333" stroke-opacity="0.7" stroke-width="1.5" stroke-linecap="round" stroke-linejoin="round"/>
</svg>
